HIERARCHY
ROOT Hips
{
	OFFSET 0.00 0.00 0.00
	CHANNELS 6 Xposition Yposition Zposition Xrotation Yrotation Zrotation
	JOINT Spine
	{
		OFFSET 0.00000 5.19526 0.00000
		CHANNELS 3 Xrotation Yrotation Zrotation
		JOINT Head
		{
			OFFSET 0.00000 15.65388 0.00000
			CHANNELS 3 Xrotation Yrotation Zrotation
			End Site
			{
				OFFSET 0.00000 4.52755 0.00000
			}
		}
		JOINT LeftShoulder
		{
			OFFSET 0.00000 10.32977 0.00000
			CHANNELS 3 Xrotation Yrotation Zrotation
			JOINT LeftArm
			{
				OFFSET 6.99601 0.00000 0.00000
				CHANNELS 3 Xrotation Yrotation Zrotation
				JOINT LeftForeArm
				{
					OFFSET 10.20930 0.00000 0.00000
					CHANNELS 3 Yrotation Zrotation Xrotation
					JOINT LeftHand
					{
						OFFSET 8.56316 0.00000 0.00000
						CHANNELS 3 Xrotation Yrotation Zrotation
						JOINT LeftHandThumb1
						{
							OFFSET 0.00000 0.00000 0.00000
							CHANNELS 3 Xrotation Zrotation Yrotation
							End Site
							{
								OFFSET 0.00000 0.00000 3.93700
							}
						}
						End Site
						{
							OFFSET 3.93700 0.00000 0.00000
						}
					}
				}
			}
		}
		JOINT RightShoulder
		{
			OFFSET 0.00000 10.32977 0.00000
			CHANNELS 3 Xrotation Yrotation Zrotation
			JOINT RightArm
			{
				OFFSET -6.99601 0.00000 0.00000
				CHANNELS 3 Xrotation Yrotation Zrotation
				JOINT RightForeArm
				{
					OFFSET -10.20930 0.00000 0.00000
					CHANNELS 3 Yrotation Zrotation Xrotation
					JOINT RightHand
					{
						OFFSET -8.56316 0.00000 0.00000
						CHANNELS 3 Xrotation Yrotation Zrotation
						JOINT RightHandThumb1
						{
							OFFSET 0.00000 0.00000 0.00000
							CHANNELS 3 Xrotation Zrotation Yrotation
							End Site
							{
								OFFSET 0.00000 0.00000 3.93700
							}
						}
						End Site
						{
							OFFSET -3.93700 0.00000 0.00000
						}
					}
				}
			}
		}
	}
	JOINT LeftUpLeg
	{
		OFFSET 3.35136 0.00000 0.00000
		CHANNELS 3 Xrotation Yrotation Zrotation
		JOINT LeftLeg
		{
			OFFSET 0.00000 -16.34683 0.00000
			CHANNELS 3 Xrotation Yrotation Zrotation
			JOINT LeftFoot
			{
				OFFSET 0.00000 -13.95979 0.00000
				CHANNELS 3 Xrotation Yrotation Zrotation
				JOINT LeftToeBase
				{
					OFFSET 0.00000 -1.33694 4.98954
					CHANNELS 3 Xrotation Yrotation Zrotation
					End Site
					{
						OFFSET 0.00000 0.00000 2.95275
					}
				}
			}
		}
	}
	JOINT RightUpLeg
	{
		OFFSET -3.35136 0.00000 0.00000
		CHANNELS 3 Xrotation Yrotation Zrotation
		JOINT RightLeg
		{
			OFFSET 0.00000 -16.34683 0.00000
			CHANNELS 3 Xrotation Yrotation Zrotation
			JOINT RightFoot
			{
				OFFSET 0.00000 -13.95979 0.00000
				CHANNELS 3 Xrotation Yrotation Zrotation
				JOINT RightToeBase
				{
					OFFSET 0.00000 -1.33694 4.98954
					CHANNELS 3 Xrotation Yrotation Zrotation
					End Site
					{
						OFFSET 0.00000 0.00000 2.95275
					}
				}
			}
		}
	}
}
MOTION
Frames: 11
Frame Time: 0.008333
 -3.8810 31.5712 -1.9452 -9.2165 20.1870 -11.9288 14.1156 -15.4364 -0.7219 9.3254 0.7588 19.0817 6.9591 16.2427 20.1400 -36.8907 12.6842 -66.6079 -136.2968 -0.0000 120.8371 -0.5418 -9.8067 -3.1776 33.1476 -0.0000 26.2537 8.8181 -17.5160 -4.3155 1.7133 33.4338 85.0557 29.8672 0.0000 23.4496 2.9474 -13.5298 12.4118 32.8623 0.0000 -24.3270 -4.5660 1.6940 9.6143 35.5903 -0.0000 0.0000 -28.2663 18.0617 -7.6338 10.6651 0.0000 -0.0000 -88.5142 -23.5505 5.8376 84.6264 -0.0000 -0.0000 7.3145 -15.4863 12.6539 5.3270 -0.0000 -0.0000
 -3.8869 31.5665 -1.9439 -9.1709 20.2120 -12.0034 14.1248 -15.3350 -0.6409 9.2839 0.5811 19.1222 6.8998 16.3241 20.1984 -36.9302 12.2820 -66.8442 -136.1155 -0.0000 121.0469 -0.5742 -9.8209 -3.3625 33.1476 -0.0000 26.2537 8.8015 -17.5144 -4.3678 1.7316 33.4038 85.0528 29.9942 0.0000 23.3812 2.9513 -13.5515 12.4087 32.8623 0.0000 -24.3270 -4.5704 1.2102 9.5108 35.6536 -0.0000 -0.0000 -28.3726 18.5563 -7.2802 10.7075 0.0000 -0.0000 -88.5410 -23.6116 5.8395 84.6497 0.0000 0.0000 7.2835 -15.2956 12.8171 5.1860 -0.0000 -0.0000
 -3.8911 31.5612 -1.9417 -9.1424 20.2253 -12.0737 14.1291 -15.2162 -0.5576 9.3118 0.4198 19.1355 6.8394 16.3707 20.2705 -36.9327 11.8999 -67.0940 -135.9575 -0.0000 121.3601 -0.5809 -9.8657 -3.3865 33.1476 -0.0000 26.2537 8.7991 -17.5026 -4.4412 1.7181 33.4152 85.0678 30.0722 0.0000 23.3762 2.9602 -13.5267 12.4668 32.8623 0.0000 -24.3270 -4.5493 0.7566 9.4165 35.7060 -0.0000 0.0000 -28.4549 18.9847 -6.8294 10.5353 0.0000 0.0000 -88.5385 -23.6781 5.8586 84.6658 -0.0000 -0.0000 7.2295 -15.1359 12.8930 5.1385 -0.0000 -0.0000
 -3.8943 31.5557 -1.9396 -9.1277 20.2062 -12.1435 14.1414 -15.0640 -0.4657 9.3327 0.2486 19.1175 6.7498 16.3943 20.3421 -36.8839 11.5043 -67.3334 -135.8025 -0.0000 121.5854 -0.5865 -9.8377 -3.4289 33.1476 -0.0000 26.2537 8.8043 -17.4989 -4.5150 1.6861 33.4341 85.0816 30.1441 0.0000 23.4212 2.9384 -13.4896 12.4097 32.8623 0.0000 -24.3270 -4.5211 0.3329 9.3396 35.7760 0.0000 0.0000 -28.5413 19.3899 -6.4932 10.3949 0.0000 -0.0000 -88.5116 -23.7664 5.9066 84.6654 0.0000 0.0000 7.2084 -15.0603 12.9664 5.1813 0.0000 -0.0000
 -3.8959 31.5507 -1.9348 -9.1518 20.1669 -12.2018 14.1793 -14.8893 -0.3744 9.3669 0.0945 19.0836 6.6881 16.3858 20.3842 -36.8482 11.1053 -67.5125 -135.7183 -0.0000 121.8900 -0.6468 -9.8637 -3.7705 33.1476 -0.0000 26.2537 8.8212 -17.5031 -4.5752 1.6444 33.5060 85.0646 30.2096 0.0000 23.4367 2.9324 -13.5249 12.3548 32.8623 0.0000 -24.3270 -4.4616 -0.0373 9.2805 35.8723 -0.0000 0.0000 -28.6257 19.7885 -6.3399 10.3343 0.0000 0.0000 -88.4420 -23.8439 5.9840 84.6677 0.0000 0.0000 7.2187 -15.0222 13.0617 5.2857 0.0000 0.0000
 -3.8975 31.5473 -1.9303 -9.1829 20.0871 -12.2587 14.2048 -14.6741 -0.2964 9.4299 -0.0547 19.0541 6.6051 16.3126 20.4397 -36.7498 10.7580 -67.6627 -135.6249 -0.0000 122.1004 -0.6333 -9.7678 -3.7279 33.1476 -0.0000 26.2537 8.8083 -17.4730 -4.6248 1.6610 33.5703 85.0198 30.2779 0.0000 23.4719 2.9640 -13.5645 12.4492 32.8623 0.0000 -24.3270 -4.4085 -0.2619 9.2780 35.9332 0.0000 -0.0000 -28.6803 19.9911 -6.1849 10.1875 0.0000 -0.0000 -88.3317 -23.9437 6.1016 84.6294 0.0000 0.0000 7.2661 -15.0021 13.0926 5.2535 0.0000 0.0000
 -3.8928 31.5455 -1.9290 -9.3128 19.8474 -12.3452 14.3205 -14.2930 -0.1424 9.4818 -0.1714 18.9382 6.5657 16.2151 20.4042 -36.6950 10.4286 -67.7634 -135.6175 -0.0000 122.3061 -0.6605 -9.7083 -3.9107 33.1476 -0.0000 26.2537 8.7319 -17.4079 -4.7091 1.6939 33.6415 84.9463 30.3144 0.0000 23.4638 2.9484 -13.5304 12.4151 32.8623 0.0000 -24.3270 -4.2809 -0.2355 9.3599 35.9803 0.0000 -0.0000 -28.7531 20.1558 -6.0706 10.1221 -0.0000 0.0000 -88.0778 -24.1134 6.3712 84.5283 -0.0000 -0.0000 7.4389 -14.9422 13.1377 5.1087 -0.0000 -0.0000
 -3.8939 31.5443 -1.9235 -9.3696 19.7191 -12.3940 14.3366 -14.0670 -0.0753 9.6177 -0.2437 18.8705 6.5162 16.0810 20.3972 -36.6089 10.1612 -67.7793 -135.6398 -0.0000 122.4672 -0.6840 -9.6474 -4.0750 33.1476 -0.0000 26.2537 8.7154 -17.3862 -4.7426 1.6634 33.7768 84.8849 30.2876 0.0000 23.4455 2.9445 -13.5650 12.3692 32.8623 0.0000 -24.3270 -4.2323 -0.1935 9.4203 36.0235 -0.0000 -0.0000 -28.8001 20.2155 -6.0396 10.0960 0.0000 0.0000 -87.9234 -24.2072 6.5364 84.4650 -0.0000 -0.0000 7.5216 -14.9324 13.1415 5.0782 0.0000 -0.0000
 -3.8938 31.5434 -1.9154 -9.4200 19.6256 -12.3897 14.3213 -13.9177 -0.0766 9.7849 -0.2865 18.8142 6.5248 15.9611 20.3748 -36.5847 9.9339 -67.7483 -135.7167 -0.0000 122.5295 -0.7230 -9.7121 -4.2779 33.1476 -0.0000 26.2537 8.6901 -17.3705 -4.7570 1.6501 33.9561 84.8096 30.2320 0.0000 23.4679 2.9569 -13.5431 12.4387 32.8623 0.0000 -24.3270 -4.1900 -0.1026 9.4498 36.0528 0.0000 -0.0000 -28.7934 20.1785 -6.0232 9.9446 -0.0000 -0.0000 -87.7940 -24.2478 6.6535 84.4312 0.0000 0.0000 7.5905 -14.9463 13.1868 5.0867 0.0000 0.0000
 -3.8937 31.5427 -1.9071 -9.4658 19.5336 -12.3756 14.2946 -13.8207 -0.0896 9.9566 -0.2565 18.7457 6.5251 15.8530 20.3459 -36.5433 9.7819 -67.6849 -135.8078 -0.0000 122.4609 -0.7491 -9.6961 -4.4392 33.1476 -0.0000 26.2537 8.6560 -17.3354 -4.7688 1.6273 34.1212 84.7419 30.1664 0.0000 23.5188 2.9540 -13.5493 12.4215 32.8623 0.0000 -24.3270 -4.1521 0.0404 9.4831 36.0607 -0.0000 0.0000 -28.7893 20.1205 -6.0670 9.8537 0.0000 -0.0000 -87.6705 -24.2677 6.7667 84.4005 -0.0000 0.0000 7.6698 -14.9916 13.3477 5.1704 -0.0000 0.0000
 -3.8947 31.5422 -1.9021 -9.4950 19.4600 -12.3354 14.2609 -13.7696 -0.1455 10.1004 -0.1963 18.7079 6.5242 15.7645 20.3162 -36.5375 9.6686 -67.6047 -135.9022 -0.0000 122.3614 -0.7570 -9.7733 -4.4509 33.1476 -0.0000 26.2537 8.6081 -17.3110 -4.7626 1.5952 34.3298 84.6702 30.0639 0.0000 23.4678 2.9234 -13.5613 12.2863 32.8623 0.0000 -24.3270 -4.1399 0.1920 9.4994 36.0742 -0.0000 0.0000 -28.7565 20.0084 -6.1688 9.7857 -0.0000 -0.0000 -87.5731 -24.2521 6.8504 84.3624 -0.0000 -0.0000 7.7590 -15.0010 13.3983 5.1448 0.0000 0.0000
